<svg width="206" height="51" viewBox="0 0 206 51" fill="none" xmlns="http://www.w3.org/2000/svg">
<path d="M15.5797 33.5601C12.4743 35.0102 9.04693 35.6337 5.62973 35.3701C3.92602 32.0489 3.10366 28.3458 3.24142 24.6156C3.37917 20.8854 4.47243 17.253 6.41648 14.0665C8.36052 10.8799 11.0902 8.24595 14.3441 6.41682C17.598 4.58769 21.267 3.62471 24.9997 3.62012C30.2696 3.8193 35.3314 5.72888 39.4197 9.06012C37.0297 9.91012 32.0197 13.0601 26.7497 18.8901C20.6697 25.5601 19.7597 31.3401 15.5797 33.5601Z" fill="#36A4EE"/>
<path d="M46.8316 25.42C46.8316 28.2858 46.2668 31.1235 45.1695 33.7709C44.0722 36.4184 42.4639 38.8236 40.4365 40.8491C38.4091 42.8746 36.0024 44.4807 33.354 45.5756C30.7056 46.6704 27.8674 47.2326 25.0016 47.23C22.2988 47.2355 19.619 46.7335 17.1016 45.75C19.9816 44.07 22.1016 41.12 23.3016 39.56C30.3516 30.06 24.8816 24.74 36.8516 17.12C39.0209 15.8124 41.3369 14.7652 43.7516 14C45.7257 17.4857 46.7853 21.4144 46.8316 25.42Z" fill="#36A4EE"/>
<path d="M61.6602 36.334V37.084H59.5742V36.334H61.6602ZM59.7969 36.334V40.5605H58.8555V36.334H59.7969ZM62.3984 36.334V40.5605H61.4531V36.334H62.3984ZM63.4548 38.4941V38.4043C63.4548 38.0996 63.4991 37.8171 63.5877 37.5566C63.6762 37.2936 63.8038 37.0658 63.9705 36.873C64.1397 36.6777 64.3455 36.5267 64.5877 36.4199C64.8324 36.3105 65.1085 36.2559 65.4158 36.2559C65.7257 36.2559 66.0017 36.3105 66.2439 36.4199C66.4887 36.5267 66.6957 36.6777 66.865 36.873C67.0343 37.0658 67.1632 37.2936 67.2517 37.5566C67.3403 37.8171 67.3845 38.0996 67.3845 38.4043V38.4941C67.3845 38.7988 67.3403 39.0814 67.2517 39.3418C67.1632 39.6022 67.0343 39.8301 66.865 40.0254C66.6957 40.2181 66.49 40.3691 66.2478 40.4785C66.0056 40.5853 65.7309 40.6387 65.4236 40.6387C65.1137 40.6387 64.8364 40.5853 64.5916 40.4785C64.3494 40.3691 64.1436 40.2181 63.9744 40.0254C63.8051 39.8301 63.6762 39.6022 63.5877 39.3418C63.4991 39.0814 63.4548 38.7988 63.4548 38.4941ZM64.3962 38.4043V38.4941C64.3962 38.6842 64.4158 38.8639 64.4548 39.0332C64.4939 39.2025 64.5551 39.3509 64.6384 39.4785C64.7218 39.6061 64.8285 39.7064 64.9587 39.7793C65.089 39.8522 65.2439 39.8887 65.4236 39.8887C65.5981 39.8887 65.7491 39.8522 65.8767 39.7793C66.0069 39.7064 66.1137 39.6061 66.197 39.4785C66.2804 39.3509 66.3416 39.2025 66.3806 39.0332C66.4223 38.8639 66.4431 38.6842 66.4431 38.4941V38.4043C66.4431 38.2168 66.4223 38.0397 66.3806 37.873C66.3416 37.7038 66.2791 37.554 66.1931 37.4238C66.1098 37.2936 66.003 37.1921 65.8728 37.1191C65.7452 37.0436 65.5929 37.0059 65.4158 37.0059C65.2387 37.0059 65.0851 37.0436 64.9548 37.1191C64.8272 37.1921 64.7218 37.2936 64.6384 37.4238C64.5551 37.554 64.4939 37.7038 64.4548 37.873C64.4158 38.0397 64.3962 38.2168 64.3962 38.4043ZM70.1402 39.8887C70.2938 39.8887 70.4318 39.8587 70.5542 39.7988C70.6792 39.7363 70.7795 39.6504 70.855 39.541C70.9331 39.4316 70.9761 39.3053 70.9839 39.1621H71.8706C71.8654 39.4355 71.7847 39.6842 71.6284 39.9082C71.4722 40.1322 71.2652 40.3105 71.0073 40.4434C70.7495 40.5736 70.4644 40.6387 70.1519 40.6387C69.829 40.6387 69.5477 40.584 69.3081 40.4746C69.0685 40.3626 68.8693 40.209 68.7105 40.0137C68.5516 39.8184 68.4318 39.5931 68.3511 39.3379C68.273 39.0827 68.2339 38.8092 68.2339 38.5176V38.3809C68.2339 38.0892 68.273 37.8158 68.3511 37.5605C68.4318 37.3027 68.5516 37.0762 68.7105 36.8809C68.8693 36.6855 69.0685 36.5332 69.3081 36.4238C69.5477 36.3118 69.8277 36.2559 70.148 36.2559C70.4865 36.2559 70.7834 36.3236 71.0386 36.459C71.2938 36.5918 71.4943 36.778 71.6402 37.0176C71.7886 37.2546 71.8654 37.5306 71.8706 37.8457H70.9839C70.9761 37.6895 70.937 37.5488 70.8667 37.4238C70.799 37.2962 70.7027 37.1947 70.5777 37.1191C70.4553 37.0436 70.3081 37.0059 70.1362 37.0059C69.9461 37.0059 69.7886 37.0449 69.6636 37.123C69.5386 37.1986 69.4409 37.3027 69.3706 37.4355C69.3003 37.5658 69.2495 37.7129 69.2183 37.877C69.1896 38.0384 69.1753 38.2064 69.1753 38.3809V38.5176C69.1753 38.6921 69.1896 38.8613 69.2183 39.0254C69.2469 39.1895 69.2964 39.3366 69.3667 39.4668C69.4396 39.5944 69.5386 39.6973 69.6636 39.7754C69.7886 39.8509 69.9474 39.8887 70.1402 39.8887ZM74.7942 36.334V40.5605H73.8489V36.334H74.7942ZM76.1809 36.334V37.0762H72.4856V36.334H76.1809ZM79.3702 39.7129V37.6973C79.3702 37.5462 79.3428 37.416 79.2881 37.3066C79.2334 37.1973 79.1501 37.1126 79.0381 37.0527C78.9287 36.9928 78.7907 36.9629 78.6241 36.9629C78.4704 36.9629 78.3376 36.9889 78.2256 37.041C78.1136 37.0931 78.0264 37.1634 77.9639 37.252C77.9014 37.3405 77.8702 37.4408 77.8702 37.5527H76.9327C76.9327 37.3861 76.973 37.2246 77.0537 37.0684C77.1345 36.9121 77.2517 36.7728 77.4053 36.6504C77.559 36.528 77.7426 36.4316 77.9561 36.3613C78.1696 36.291 78.4092 36.2559 78.6748 36.2559C78.9926 36.2559 79.2738 36.3092 79.5186 36.416C79.766 36.5228 79.96 36.6842 80.1006 36.9004C80.2439 37.1139 80.3155 37.3822 80.3155 37.7051V39.584C80.3155 39.7767 80.3285 39.9499 80.3545 40.1035C80.3832 40.2546 80.4235 40.3861 80.4756 40.498V40.5605H79.5108C79.4665 40.459 79.4314 40.3301 79.4053 40.1738C79.3819 40.015 79.3702 39.8613 79.3702 39.7129ZM79.5069 37.9902L79.5147 38.5723H78.8389C78.6644 38.5723 78.5108 38.5892 78.378 38.623C78.2452 38.6543 78.1345 38.7012 78.0459 38.7637C77.9574 38.8262 77.891 38.9017 77.8467 38.9902C77.8024 39.0788 77.7803 39.179 77.7803 39.291C77.7803 39.403 77.8064 39.5059 77.8584 39.5996C77.9105 39.6908 77.986 39.7624 78.085 39.8145C78.1866 39.8665 78.309 39.8926 78.4522 39.8926C78.6449 39.8926 78.8129 39.8535 78.9561 39.7754C79.1019 39.6947 79.2165 39.597 79.2998 39.4824C79.3832 39.3652 79.4274 39.2546 79.4327 39.1504L79.7373 39.5684C79.7061 39.6751 79.6527 39.7897 79.5772 39.9121C79.5017 40.0345 79.4027 40.1517 79.2803 40.2637C79.1605 40.373 79.016 40.4629 78.8467 40.5332C78.6801 40.6035 78.4873 40.6387 78.2686 40.6387C77.9926 40.6387 77.7465 40.584 77.5303 40.4746C77.3142 40.3626 77.1449 40.2129 77.0225 40.0254C76.9001 39.8353 76.8389 39.6204 76.8389 39.3809C76.8389 39.1569 76.8806 38.959 76.9639 38.7871C77.0498 38.6126 77.1748 38.4668 77.3389 38.3496C77.5056 38.2324 77.7087 38.1439 77.9483 38.084C78.1879 38.0215 78.4613 37.9902 78.7686 37.9902H79.5069ZM84.9344 36.334V40.5605H83.993V36.334H84.9344ZM84.5359 38.2051V38.9512C84.4214 39.0007 84.2924 39.0462 84.1492 39.0879C84.0086 39.127 83.8602 39.1595 83.7039 39.1855C83.5477 39.209 83.3901 39.2207 83.2313 39.2207C82.8589 39.2207 82.5372 39.1634 82.2664 39.0488C81.9982 38.9342 81.7911 38.7585 81.6453 38.5215C81.5021 38.2819 81.4305 37.9785 81.4305 37.6113V36.3301H82.368V37.6113C82.368 37.8223 82.3992 37.9902 82.4617 38.1152C82.5268 38.2402 82.6232 38.3301 82.7508 38.3848C82.8784 38.4395 83.0385 38.4668 83.2313 38.4668C83.3927 38.4668 83.5451 38.4564 83.6883 38.4355C83.8315 38.4121 83.9734 38.3809 84.1141 38.3418C84.2547 38.3027 84.3953 38.2572 84.5359 38.2051ZM88.5611 39.7129V37.6973C88.5611 37.5462 88.5338 37.416 88.4791 37.3066C88.4244 37.1973 88.341 37.1126 88.2291 37.0527C88.1197 36.9928 87.9817 36.9629 87.815 36.9629C87.6614 36.9629 87.5285 36.9889 87.4166 37.041C87.3046 37.0931 87.2173 37.1634 87.1548 37.252C87.0923 37.3405 87.0611 37.4408 87.0611 37.5527H86.1236C86.1236 37.3861 86.164 37.2246 86.2447 37.0684C86.3254 36.9121 86.4426 36.7728 86.5963 36.6504C86.7499 36.528 86.9335 36.4316 87.147 36.3613C87.3606 36.291 87.6002 36.2559 87.8658 36.2559C88.1835 36.2559 88.4647 36.3092 88.7095 36.416C88.9569 36.5228 89.1509 36.6842 89.2916 36.9004C89.4348 37.1139 89.5064 37.3822 89.5064 37.7051V39.584C89.5064 39.7767 89.5194 39.9499 89.5455 40.1035C89.5741 40.2546 89.6145 40.3861 89.6666 40.498V40.5605H88.7017C88.6574 40.459 88.6223 40.3301 88.5963 40.1738C88.5728 40.015 88.5611 39.8613 88.5611 39.7129ZM88.6978 37.9902L88.7056 38.5723H88.0298C87.8554 38.5723 87.7017 38.5892 87.5689 38.623C87.4361 38.6543 87.3254 38.7012 87.2369 38.7637C87.1483 38.8262 87.0819 38.9017 87.0377 38.9902C86.9934 39.0788 86.9713 39.179 86.9713 39.291C86.9713 39.403 86.9973 39.5059 87.0494 39.5996C87.1015 39.6908 87.177 39.7624 87.2759 39.8145C87.3775 39.8665 87.4999 39.8926 87.6431 39.8926C87.8358 39.8926 88.0038 39.8535 88.147 39.7754C88.2929 39.6947 88.4074 39.597 88.4908 39.4824C88.5741 39.3652 88.6184 39.2546 88.6236 39.1504L88.9283 39.5684C88.897 39.6751 88.8436 39.7897 88.7681 39.9121C88.6926 40.0345 88.5936 40.1517 88.4713 40.2637C88.3515 40.373 88.2069 40.4629 88.0377 40.5332C87.871 40.6035 87.6783 40.6387 87.4595 40.6387C87.1835 40.6387 86.9374 40.584 86.7213 40.4746C86.5051 40.3626 86.3358 40.2129 86.2134 40.0254C86.091 39.8353 86.0298 39.6204 86.0298 39.3809C86.0298 39.1569 86.0715 38.959 86.1548 38.7871C86.2408 38.6126 86.3658 38.4668 86.5298 38.3496C86.6965 38.2324 86.8996 38.1439 87.1392 38.084C87.3788 38.0215 87.6522 37.9902 87.9595 37.9902H88.6978ZM93.6175 38.0996V38.8418H91.43V38.0996H93.6175ZM91.7034 36.334V40.5605H90.762V36.334H91.7034ZM94.2972 36.334V40.5605H93.3558V36.334H94.2972ZM98.4278 38.0996V38.8418H96.2403V38.0996H98.4278ZM96.5137 36.334V40.5605H95.5723V36.334H96.5137ZM99.1075 36.334V40.5605H98.1661V36.334H99.1075ZM101.242 38.4941H102.219L101.019 40.5605H100.047L101.242 38.4941ZM101.93 36.334H103.742V40.5605H102.805V37.0762H101.93C101.752 37.0762 101.607 37.1074 101.492 37.1699C101.377 37.2298 101.293 37.3092 101.238 37.4082C101.183 37.5046 101.156 37.6035 101.156 37.7051C101.156 37.8066 101.181 37.9043 101.23 37.998C101.282 38.0918 101.362 38.1686 101.469 38.2285C101.578 38.2884 101.715 38.3184 101.879 38.3184H103.121V39.0059H101.879C101.618 39.0059 101.385 38.9733 101.18 38.9082C100.974 38.8405 100.799 38.748 100.656 38.6309C100.513 38.5111 100.403 38.3717 100.328 38.2129C100.252 38.0514 100.215 37.8757 100.215 37.6855C100.215 37.4902 100.254 37.3105 100.332 37.1465C100.41 36.9824 100.522 36.8392 100.668 36.7168C100.816 36.5944 100.996 36.5007 101.207 36.4355C101.42 36.3678 101.661 36.334 101.93 36.334ZM109.773 39.4199L111.031 36.334H111.847L110.093 40.5605H109.452L107.702 36.334H108.519L109.773 39.4199ZM108.277 36.334V40.5605H107.335V36.334H108.277ZM111.269 40.5605V36.334H112.214V40.5605H111.269ZM115.372 40.6387C115.06 40.6387 114.777 40.5879 114.525 40.4863C114.275 40.3822 114.061 40.2376 113.884 40.0527C113.709 39.8678 113.575 39.6504 113.482 39.4004C113.388 39.1504 113.341 38.8809 113.341 38.5918V38.4355C113.341 38.1048 113.389 37.8053 113.485 37.5371C113.582 37.2689 113.716 37.0397 113.888 36.8496C114.06 36.6569 114.263 36.5098 114.497 36.4082C114.732 36.3066 114.985 36.2559 115.259 36.2559C115.561 36.2559 115.825 36.3066 116.052 36.4082C116.278 36.5098 116.466 36.653 116.614 36.8379C116.765 37.0202 116.877 37.2376 116.95 37.4902C117.026 37.7428 117.064 38.0215 117.064 38.3262V38.7285H113.798V38.0527H116.134V37.9785C116.129 37.8092 116.095 37.6504 116.032 37.502C115.972 37.3535 115.88 37.2337 115.755 37.1426C115.63 37.0514 115.463 37.0059 115.255 37.0059C115.099 37.0059 114.959 37.0397 114.837 37.1074C114.717 37.1725 114.617 37.2676 114.536 37.3926C114.456 37.5176 114.393 37.6686 114.349 37.8457C114.307 38.0202 114.286 38.2168 114.286 38.4355V38.5918C114.286 38.7767 114.311 38.9486 114.36 39.1074C114.413 39.2637 114.488 39.4004 114.587 39.5176C114.686 39.6348 114.806 39.7272 114.946 39.7949C115.087 39.86 115.247 39.8926 115.427 39.8926C115.653 39.8926 115.855 39.847 116.032 39.7559C116.209 39.6647 116.363 39.5358 116.493 39.3691L116.989 39.8496C116.898 39.9824 116.78 40.11 116.634 40.2324C116.488 40.3522 116.31 40.4499 116.099 40.5254C115.89 40.6009 115.648 40.6387 115.372 40.6387ZM118.804 36.334H119.745L119.698 37.8223C119.685 38.2546 119.636 38.6257 119.55 38.9355C119.464 39.2454 119.352 39.5072 119.214 39.7207C119.076 39.9316 118.919 40.1048 118.745 40.2402C118.573 40.3757 118.392 40.4824 118.202 40.5605H117.925V39.8184L118.057 39.8105C118.169 39.6908 118.266 39.571 118.347 39.4512C118.43 39.3288 118.5 39.1947 118.557 39.0488C118.615 38.9004 118.659 38.7272 118.69 38.5293C118.724 38.3314 118.746 38.0957 118.757 37.8223L118.804 36.334ZM119.054 36.334H121.733V40.5605H120.796V37.1309H119.054V36.334ZM117.71 39.8105H122.311V41.8184H121.37V40.5605H118.663V41.8184H117.706L117.71 39.8105ZM124.173 39.1855L125.833 36.334H126.774V40.5605H125.833V37.7051L124.173 40.5605H123.231V36.334H124.173V39.1855ZM131.405 36.334V40.5605H130.463V36.334H131.405ZM131.006 38.2051V38.9512C130.892 39.0007 130.763 39.0462 130.62 39.0879C130.479 39.127 130.33 39.1595 130.174 39.1855C130.018 39.209 129.86 39.2207 129.702 39.2207C129.329 39.2207 129.008 39.1634 128.737 39.0488C128.468 38.9342 128.261 38.7585 128.116 38.5215C127.972 38.2819 127.901 37.9785 127.901 37.6113V36.3301H128.838V37.6113C128.838 37.8223 128.87 37.9902 128.932 38.1152C128.997 38.2402 129.093 38.3301 129.221 38.3848C129.349 38.4395 129.509 38.4668 129.702 38.4668C129.863 38.4668 130.015 38.4564 130.159 38.4355C130.302 38.4121 130.444 38.3809 130.584 38.3418C130.725 38.3027 130.866 38.2572 131.006 38.2051ZM135.535 38.0996V38.8418H133.348V38.0996H135.535ZM133.621 36.334V40.5605H132.68V36.334H133.621ZM136.215 36.334V40.5605H135.274V36.334H136.215ZM137.279 38.4941V38.4043C137.279 38.0996 137.323 37.8171 137.412 37.5566C137.501 37.2936 137.628 37.0658 137.795 36.873C137.964 36.6777 138.17 36.5267 138.412 36.4199C138.657 36.3105 138.933 36.2559 139.24 36.2559C139.55 36.2559 139.826 36.3105 140.068 36.4199C140.313 36.5267 140.52 36.6777 140.689 36.873C140.859 37.0658 140.988 37.2936 141.076 37.5566C141.165 37.8171 141.209 38.0996 141.209 38.4043V38.4941C141.209 38.7988 141.165 39.0814 141.076 39.3418C140.988 39.6022 140.859 39.8301 140.689 40.0254C140.52 40.2181 140.314 40.3691 140.072 40.4785C139.83 40.5853 139.555 40.6387 139.248 40.6387C138.938 40.6387 138.661 40.5853 138.416 40.4785C138.174 40.3691 137.968 40.2181 137.799 40.0254C137.629 39.8301 137.501 39.6022 137.412 39.3418C137.323 39.0814 137.279 38.7988 137.279 38.4941ZM138.221 38.4043V38.4941C138.221 38.6842 138.24 38.8639 138.279 39.0332C138.318 39.2025 138.379 39.3509 138.463 39.4785C138.546 39.6061 138.653 39.7064 138.783 39.7793C138.913 39.8522 139.068 39.8887 139.248 39.8887C139.422 39.8887 139.573 39.8522 139.701 39.7793C139.831 39.7064 139.938 39.6061 140.021 39.4785C140.105 39.3509 140.166 39.2025 140.205 39.0332C140.247 38.8639 140.268 38.6842 140.268 38.4941V38.4043C140.268 38.2168 140.247 38.0397 140.205 37.873C140.166 37.7038 140.103 37.554 140.018 37.4238C139.934 37.2936 139.827 37.1921 139.697 37.1191C139.57 37.0436 139.417 37.0059 139.24 37.0059C139.063 37.0059 138.909 37.0436 138.779 37.1191C138.652 37.1921 138.546 37.2936 138.463 37.4238C138.379 37.554 138.318 37.7038 138.279 37.873C138.24 38.0397 138.221 38.2168 138.221 38.4043ZM145.05 36.334V37.084H143.207V40.5605H142.265V36.334H145.05ZM145.58 38.4941V38.4043C145.58 38.0996 145.624 37.8171 145.712 37.5566C145.801 37.2936 145.928 37.0658 146.095 36.873C146.264 36.6777 146.47 36.5267 146.712 36.4199C146.957 36.3105 147.233 36.2559 147.54 36.2559C147.85 36.2559 148.126 36.3105 148.369 36.4199C148.613 36.5267 148.82 36.6777 148.99 36.873C149.159 37.0658 149.288 37.2936 149.376 37.5566C149.465 37.8171 149.509 38.0996 149.509 38.4043V38.4941C149.509 38.7988 149.465 39.0814 149.376 39.3418C149.288 39.6022 149.159 39.8301 148.99 40.0254C148.82 40.2181 148.615 40.3691 148.372 40.4785C148.13 40.5853 147.856 40.6387 147.548 40.6387C147.238 40.6387 146.961 40.5853 146.716 40.4785C146.474 40.3691 146.268 40.2181 146.099 40.0254C145.93 39.8301 145.801 39.6022 145.712 39.3418C145.624 39.0814 145.58 38.7988 145.58 38.4941ZM146.521 38.4043V38.4941C146.521 38.6842 146.54 38.8639 146.58 39.0332C146.619 39.2025 146.68 39.3509 146.763 39.4785C146.846 39.6061 146.953 39.7064 147.083 39.7793C147.214 39.8522 147.369 39.8887 147.548 39.8887C147.723 39.8887 147.874 39.8522 148.001 39.7793C148.132 39.7064 148.238 39.6061 148.322 39.4785C148.405 39.3509 148.466 39.2025 148.505 39.0332C148.547 38.8639 148.568 38.6842 148.568 38.4941V38.4043C148.568 38.2168 148.547 38.0397 148.505 37.873C148.466 37.7038 148.404 37.554 148.318 37.4238C148.234 37.2936 148.128 37.1921 147.997 37.1191C147.87 37.0436 147.718 37.0059 147.54 37.0059C147.363 37.0059 147.21 37.0436 147.08 37.1191C146.952 37.1921 146.846 37.2936 146.763 37.4238C146.68 37.554 146.619 37.7038 146.58 37.873C146.54 38.0397 146.521 38.2168 146.521 38.4043ZM152.591 38.4941V38.4043C152.591 38.0996 152.635 37.8171 152.724 37.5566C152.812 37.2936 152.94 37.0658 153.106 36.873C153.276 36.6777 153.481 36.5267 153.724 36.4199C153.968 36.3105 154.244 36.2559 154.552 36.2559C154.862 36.2559 155.138 36.3105 155.38 36.4199C155.625 36.5267 155.832 36.6777 156.001 36.873C156.17 37.0658 156.299 37.2936 156.388 37.5566C156.476 37.8171 156.52 38.0996 156.52 38.4043V38.4941C156.52 38.7988 156.476 39.0814 156.388 39.3418C156.299 39.6022 156.17 39.8301 156.001 40.0254C155.832 40.2181 155.626 40.3691 155.384 40.4785C155.142 40.5853 154.867 40.6387 154.56 40.6387C154.25 40.6387 153.972 40.5853 153.728 40.4785C153.485 40.3691 153.28 40.2181 153.11 40.0254C152.941 39.8301 152.812 39.6022 152.724 39.3418C152.635 39.0814 152.591 38.7988 152.591 38.4941ZM153.532 38.4043V38.4941C153.532 38.6842 153.552 38.8639 153.591 39.0332C153.63 39.2025 153.691 39.3509 153.774 39.4785C153.858 39.6061 153.964 39.7064 154.095 39.7793C154.225 39.8522 154.38 39.8887 154.56 39.8887C154.734 39.8887 154.885 39.8522 155.013 39.7793C155.143 39.7064 155.25 39.6061 155.333 39.4785C155.416 39.3509 155.478 39.2025 155.517 39.0332C155.558 38.8639 155.579 38.6842 155.579 38.4941V38.4043C155.579 38.2168 155.558 38.0397 155.517 37.873C155.478 37.7038 155.415 37.554 155.329 37.4238C155.246 37.2936 155.139 37.1921 155.009 37.1191C154.881 37.0436 154.729 37.0059 154.552 37.0059C154.375 37.0059 154.221 37.0436 154.091 37.1191C153.963 37.1921 153.858 37.2936 153.774 37.4238C153.691 37.554 153.63 37.7038 153.591 37.873C153.552 38.0397 153.532 38.2168 153.532 38.4043ZM160.202 34.4824H160.964C160.964 34.7142 160.931 34.9056 160.866 35.0566C160.803 35.2051 160.71 35.3275 160.585 35.4238C160.462 35.5176 160.31 35.5931 160.128 35.6504C159.948 35.7077 159.74 35.7598 159.503 35.8066C159.284 35.8535 159.086 35.9277 158.909 36.0293C158.734 36.1283 158.587 36.2676 158.467 36.4473C158.35 36.6243 158.266 36.8522 158.214 37.1309C158.162 37.4095 158.146 37.7493 158.167 38.1504V38.416L157.421 38.4824V38.2168C157.421 37.7194 157.466 37.2858 157.557 36.916C157.648 36.5462 157.777 36.235 157.944 35.9824C158.113 35.7272 158.314 35.5241 158.546 35.373C158.78 35.222 159.04 35.1178 159.327 35.0605C159.522 35.0189 159.685 34.9772 159.815 34.9355C159.945 34.8913 160.042 34.8353 160.104 34.7676C160.169 34.6973 160.202 34.6022 160.202 34.4824ZM159.542 36.5723C159.823 36.5723 160.073 36.6217 160.292 36.7207C160.51 36.8171 160.695 36.9525 160.846 37.127C160.997 37.3014 161.112 37.5072 161.19 37.7441C161.271 37.9811 161.311 38.2389 161.311 38.5176V38.6035C161.311 38.8952 161.268 39.1647 161.182 39.4121C161.096 39.6595 160.97 39.8757 160.803 40.0605C160.637 40.2428 160.432 40.3861 160.19 40.4902C159.951 40.5918 159.676 40.6426 159.366 40.6426C159.059 40.6426 158.784 40.5892 158.542 40.4824C158.3 40.3757 158.095 40.2272 157.928 40.0371C157.762 39.8444 157.635 39.6191 157.55 39.3613C157.464 39.1035 157.421 38.8223 157.421 38.5176V38.4316C157.418 38.377 157.432 38.3236 157.464 38.2715C157.497 38.2194 157.538 38.1634 157.585 38.1035C157.632 38.0436 157.673 37.9746 157.71 37.8965C157.84 37.6335 157.994 37.403 158.171 37.2051C158.348 37.0072 158.55 36.8522 158.776 36.7402C159.005 36.6283 159.26 36.5723 159.542 36.5723ZM159.358 37.3184C159.124 37.3184 158.932 37.3743 158.784 37.4863C158.638 37.5957 158.53 37.7415 158.46 37.9238C158.392 38.1061 158.358 38.304 158.358 38.5176V38.6035C158.358 38.778 158.378 38.9434 158.417 39.0996C158.456 39.2559 158.514 39.3939 158.592 39.5137C158.673 39.6309 158.777 39.7233 158.905 39.791C159.035 39.8587 159.189 39.8926 159.366 39.8926C159.546 39.8926 159.698 39.8587 159.823 39.791C159.951 39.7233 160.053 39.6309 160.132 39.5137C160.212 39.3939 160.271 39.2559 160.307 39.0996C160.346 38.9434 160.366 38.778 160.366 38.6035V38.5176C160.366 38.3561 160.346 38.2038 160.307 38.0605C160.271 37.9173 160.212 37.791 160.132 37.6816C160.051 37.5697 159.947 37.4811 159.819 37.416C159.691 37.3509 159.538 37.3184 159.358 37.3184ZM165.129 36.334V37.084H163.067V36.334H165.129ZM165.868 36.334V40.5605H164.926V36.334H165.868ZM162.836 36.334H163.766L163.653 38.4238C163.637 38.7337 163.606 39.0072 163.559 39.2441C163.515 39.4785 163.455 39.6803 163.379 39.8496C163.304 40.0163 163.211 40.1517 163.102 40.2559C162.993 40.36 162.865 40.4368 162.719 40.4863C162.573 40.5358 162.409 40.5605 162.227 40.5605H161.934L161.93 39.7871L162.079 39.7754C162.175 39.7676 162.258 39.7428 162.329 39.7012C162.399 39.6569 162.459 39.5944 162.508 39.5137C162.56 39.4329 162.602 39.3288 162.633 39.2012C162.667 39.0736 162.693 38.9225 162.711 38.748C162.732 38.5736 162.748 38.3704 162.758 38.1387L162.836 36.334ZM169.49 39.7129V37.6973C169.49 37.5462 169.463 37.416 169.408 37.3066C169.354 37.1973 169.27 37.1126 169.158 37.0527C169.049 36.9928 168.911 36.9629 168.744 36.9629C168.591 36.9629 168.458 36.9889 168.346 37.041C168.234 37.0931 168.147 37.1634 168.084 37.252C168.022 37.3405 167.99 37.4408 167.99 37.5527H167.053C167.053 37.3861 167.093 37.2246 167.174 37.0684C167.255 36.9121 167.372 36.7728 167.526 36.6504C167.679 36.528 167.863 36.4316 168.076 36.3613C168.29 36.291 168.53 36.2559 168.795 36.2559C169.113 36.2559 169.394 36.3092 169.639 36.416C169.886 36.5228 170.08 36.6842 170.221 36.9004C170.364 37.1139 170.436 37.3822 170.436 37.7051V39.584C170.436 39.7767 170.449 39.9499 170.475 40.1035C170.503 40.2546 170.544 40.3861 170.596 40.498V40.5605H169.631C169.587 40.459 169.552 40.3301 169.526 40.1738C169.502 40.015 169.49 39.8613 169.49 39.7129ZM169.627 37.9902L169.635 38.5723H168.959C168.785 38.5723 168.631 38.5892 168.498 38.623C168.365 38.6543 168.255 38.7012 168.166 38.7637C168.078 38.8262 168.011 38.9017 167.967 38.9902C167.923 39.0788 167.901 39.179 167.901 39.291C167.901 39.403 167.927 39.5059 167.979 39.5996C168.031 39.6908 168.106 39.7624 168.205 39.8145C168.307 39.8665 168.429 39.8926 168.573 39.8926C168.765 39.8926 168.933 39.8535 169.076 39.7754C169.222 39.6947 169.337 39.597 169.42 39.4824C169.503 39.3652 169.548 39.2546 169.553 39.1504L169.858 39.5684C169.826 39.6751 169.773 39.7897 169.698 39.9121C169.622 40.0345 169.523 40.1517 169.401 40.2637C169.281 40.373 169.136 40.4629 168.967 40.5332C168.8 40.6035 168.608 40.6387 168.389 40.6387C168.113 40.6387 167.867 40.584 167.651 40.4746C167.434 40.3626 167.265 40.2129 167.143 40.0254C167.02 39.8353 166.959 39.6204 166.959 39.3809C166.959 39.1569 167.001 38.959 167.084 38.7871C167.17 38.6126 167.295 38.4668 167.459 38.3496C167.626 38.2324 167.829 38.1439 168.069 38.084C168.308 38.0215 168.582 37.9902 168.889 37.9902H169.627ZM172.426 36.334H173.367L173.32 37.8223C173.307 38.2546 173.258 38.6257 173.172 38.9355C173.086 39.2454 172.974 39.5072 172.836 39.7207C172.698 39.9316 172.542 40.1048 172.367 40.2402C172.195 40.3757 172.014 40.4824 171.824 40.5605H171.547V39.8184L171.68 39.8105C171.792 39.6908 171.888 39.571 171.969 39.4512C172.052 39.3288 172.122 39.1947 172.18 39.0488C172.237 38.9004 172.281 38.7272 172.312 38.5293C172.346 38.3314 172.368 38.0957 172.379 37.8223L172.426 36.334ZM172.676 36.334H175.355V40.5605H174.418V37.1309H172.676V36.334ZM171.332 39.8105H175.934V41.8184H174.992V40.5605H172.285V41.8184H171.328L171.332 39.8105ZM179.709 38.0996V38.8418H177.521V38.0996H179.709ZM177.795 36.334V40.5605H176.853V36.334H177.795ZM180.388 36.334V40.5605H179.447V36.334H180.388ZM184.015 39.7129V37.6973C184.015 37.5462 183.988 37.416 183.933 37.3066C183.878 37.1973 183.795 37.1126 183.683 37.0527C183.574 36.9928 183.436 36.9629 183.269 36.9629C183.115 36.9629 182.983 36.9889 182.871 37.041C182.759 37.0931 182.671 37.1634 182.609 37.252C182.546 37.3405 182.515 37.4408 182.515 37.5527H181.578C181.578 37.3861 181.618 37.2246 181.699 37.0684C181.779 36.9121 181.897 36.7728 182.05 36.6504C182.204 36.528 182.388 36.4316 182.601 36.3613C182.815 36.291 183.054 36.2559 183.32 36.2559C183.638 36.2559 183.919 36.3092 184.164 36.416C184.411 36.5228 184.605 36.6842 184.746 36.9004C184.889 37.1139 184.96 37.3822 184.96 37.7051V39.584C184.96 39.7767 184.973 39.9499 185 40.1035C185.028 40.2546 185.069 40.3861 185.121 40.498V40.5605H184.156C184.112 40.459 184.076 40.3301 184.05 40.1738C184.027 40.015 184.015 39.8613 184.015 39.7129ZM184.152 37.9902L184.16 38.5723H183.484C183.309 38.5723 183.156 38.5892 183.023 38.623C182.89 38.6543 182.779 38.7012 182.691 38.7637C182.602 38.8262 182.536 38.9017 182.492 38.9902C182.447 39.0788 182.425 39.179 182.425 39.291C182.425 39.403 182.451 39.5059 182.503 39.5996C182.556 39.6908 182.631 39.7624 182.73 39.8145C182.832 39.8665 182.954 39.8926 183.097 39.8926C183.29 39.8926 183.458 39.8535 183.601 39.7754C183.747 39.6947 183.862 39.597 183.945 39.4824C184.028 39.3652 184.072 39.2546 184.078 39.1504L184.382 39.5684C184.351 39.6751 184.298 39.7897 184.222 39.9121C184.147 40.0345 184.048 40.1517 183.925 40.2637C183.806 40.373 183.661 40.4629 183.492 40.5332C183.325 40.6035 183.132 40.6387 182.914 40.6387C182.638 40.6387 182.391 40.584 182.175 40.4746C181.959 40.3626 181.79 40.2129 181.668 40.0254C181.545 39.8353 181.484 39.6204 181.484 39.3809C181.484 39.1569 181.526 38.959 181.609 38.7871C181.695 38.6126 181.82 38.4668 181.984 38.3496C182.151 38.2324 182.354 38.1439 182.593 38.084C182.833 38.0215 183.106 37.9902 183.414 37.9902H184.152ZM189.072 38.0996V38.8418H186.884V38.0996H189.072ZM187.158 36.334V40.5605H186.216V36.334H187.158ZM189.751 36.334V40.5605H188.81V36.334H189.751ZM193.882 38.0996V38.8418H191.694V38.0996H193.882ZM191.968 36.334V40.5605H191.026V36.334H191.968ZM194.562 36.334V40.5605H193.62V36.334H194.562ZM196.696 38.4941H197.673L196.473 40.5605H195.501L196.696 38.4941ZM197.384 36.334H199.196V40.5605H198.259V37.0762H197.384C197.207 37.0762 197.061 37.1074 196.946 37.1699C196.832 37.2298 196.747 37.3092 196.692 37.4082C196.637 37.5046 196.61 37.6035 196.61 37.7051C196.61 37.8066 196.635 37.9043 196.684 37.998C196.736 38.0918 196.816 38.1686 196.923 38.2285C197.032 38.2884 197.169 38.3184 197.333 38.3184H198.575V39.0059H197.333C197.072 39.0059 196.839 38.9733 196.634 38.9082C196.428 38.8405 196.253 38.748 196.11 38.6309C195.967 38.5111 195.858 38.3717 195.782 38.2129C195.707 38.0514 195.669 37.8757 195.669 37.6855C195.669 37.4902 195.708 37.3105 195.786 37.1465C195.864 36.9824 195.976 36.8392 196.122 36.7168C196.27 36.5944 196.45 36.5007 196.661 36.4355C196.874 36.3678 197.115 36.334 197.384 36.334Z" fill="#252525"/>
<path d="M60.0752 21.3545V27.0601H58.2434V12.4858H62.8879C64.2426 12.4858 65.307 12.8929 66.0811 13.707C66.8551 14.5145 67.2422 15.5922 67.2422 16.9402C67.2422 18.3416 66.8718 19.4226 66.1311 20.1833C65.3971 20.9374 64.3594 21.3278 63.0181 21.3545H60.0752ZM60.0752 19.783H62.8879C63.7021 19.783 64.326 19.5394 64.7598 19.0522C65.1935 18.5651 65.4104 17.8678 65.4104 16.9602C65.4104 16.086 65.1868 15.3853 64.7397 14.8582C64.2926 14.331 63.6787 14.0674 62.8979 14.0674H60.0752V19.783ZM73.8386 17.8911C73.5917 17.8444 73.3248 17.821 73.0378 17.821C72.1303 17.821 71.4963 18.3182 71.136 19.3125V27.0601H69.3643V16.2295H71.0859L71.116 17.3306C71.5898 16.4631 72.2604 16.0293 73.1279 16.0293C73.4082 16.0293 73.6418 16.076 73.8286 16.1694L73.8386 17.8911ZM75.0398 21.1443C75.0398 19.5694 75.4202 18.3249 76.1809 17.4106C76.9483 16.4897 77.9593 16.0293 79.2139 16.0293C80.4684 16.0293 81.4761 16.4764 82.2368 17.3706C83.0042 18.2648 83.3979 19.4827 83.418 21.0242V22.1653C83.418 23.7335 83.0376 24.9747 82.2769 25.8889C81.5161 26.8031 80.5018 27.2603 79.2339 27.2603C77.9793 27.2603 76.9717 26.8165 76.2109 25.929C75.4569 25.0414 75.0665 23.8403 75.0398 22.3254V21.1443ZM76.8115 22.1653C76.8115 23.2797 77.0284 24.1572 77.4622 24.7979C77.9026 25.4318 78.4932 25.7488 79.2339 25.7488C80.7954 25.7488 81.5995 24.621 81.6462 22.3655V21.1443C81.6462 20.0365 81.426 19.1624 80.9856 18.5217C80.5452 17.8744 79.9546 17.5508 79.2139 17.5508C78.4865 17.5508 77.9026 17.8744 77.4622 18.5217C77.0284 19.1624 76.8115 20.0332 76.8115 21.1343V22.1653ZM88.613 24.3674L90.665 16.2295H92.4668L89.2537 27.0601H87.9324L84.6792 16.2295H86.481L88.613 24.3674ZM96.2205 27.0601H94.4487V16.2295H96.2205V27.0601ZM96.3606 13.3567C96.3606 13.657 96.2772 13.9072 96.1104 14.1074C95.9435 14.3076 95.6899 14.4077 95.3496 14.4077C95.016 14.4077 94.7657 14.3076 94.5989 14.1074C94.432 13.9072 94.3486 13.657 94.3486 13.3567C94.3486 13.0564 94.432 12.8028 94.5989 12.5959C94.7657 12.3891 95.016 12.2856 95.3496 12.2856C95.6833 12.2856 95.9335 12.3924 96.1003 12.606C96.2738 12.8128 96.3606 13.0631 96.3606 13.3567ZM98.6428 21.1543C98.6428 19.486 98.9531 18.2148 99.5737 17.3406C100.201 16.4664 101.099 16.0293 102.266 16.0293C103.301 16.0293 104.108 16.4497 104.689 17.2905V11.6851H106.46V27.0601H104.839L104.749 25.8989C104.168 26.8065 103.337 27.2603 102.256 27.2603C101.135 27.2603 100.254 26.8265 99.6138 25.959C98.9798 25.0848 98.6562 23.8536 98.6428 22.2654V21.1543ZM100.415 22.1653C100.415 23.3798 100.595 24.274 100.955 24.8479C101.315 25.4151 101.903 25.6987 102.717 25.6987C103.598 25.6987 104.255 25.255 104.689 24.3674V18.9021C104.235 18.0346 103.581 17.6008 102.727 17.6008C101.913 17.6008 101.325 17.8878 100.965 18.4617C100.605 19.0289 100.421 19.9031 100.415 21.0842V22.1653ZM111.095 27.0601H109.323V16.2295H111.095V27.0601ZM111.235 13.3567C111.235 13.657 111.152 13.9072 110.985 14.1074C110.818 14.3076 110.564 14.4077 110.224 14.4077C109.89 14.4077 109.64 14.3076 109.473 14.1074C109.307 13.9072 109.223 13.657 109.223 13.3567C109.223 13.0564 109.307 12.8028 109.473 12.5959C109.64 12.3891 109.89 12.2856 110.224 12.2856C110.558 12.2856 110.808 12.3924 110.975 12.606C111.148 12.8128 111.235 13.0631 111.235 13.3567ZM119.463 27.0601C119.356 26.8265 119.28 26.4328 119.233 25.8789C118.606 26.7998 117.805 27.2603 116.831 27.2603C115.85 27.2603 115.082 26.9867 114.528 26.4395C113.981 25.8856 113.708 25.1082 113.708 24.1072C113.708 23.0061 114.081 22.1319 114.829 21.4846C115.576 20.8373 116.6 20.507 117.902 20.4937H119.203V19.3425C119.203 18.6952 119.059 18.2348 118.772 17.9612C118.486 17.6876 118.048 17.5508 117.461 17.5508C116.927 17.5508 116.494 17.7109 116.16 18.0312C115.826 18.3449 115.659 18.7453 115.659 19.2324H113.888C113.888 18.6785 114.051 18.1514 114.378 17.6509C114.705 17.1437 115.146 16.7467 115.699 16.4597C116.253 16.1728 116.871 16.0293 117.551 16.0293C118.659 16.0293 119.5 16.3062 120.074 16.8601C120.654 17.4073 120.951 18.2081 120.965 19.2625V24.7278C120.971 25.5619 121.085 26.286 121.305 26.8999V27.0601H119.463ZM117.101 25.6487C117.535 25.6487 117.948 25.5286 118.342 25.2883C118.736 25.0481 119.023 24.7478 119.203 24.3875V21.8049H118.202C117.361 21.8183 116.697 22.0085 116.21 22.3755C115.723 22.7358 115.479 23.243 115.479 23.897C115.479 24.5109 115.603 24.958 115.85 25.2383C116.097 25.5119 116.514 25.6487 117.101 25.6487ZM125.389 16.2295L125.439 17.4006C126.126 16.4864 127.004 16.0293 128.072 16.0293C129.987 16.0293 130.958 17.3072 130.984 19.863V27.0601H129.223V19.9431C129.223 19.0956 129.079 18.495 128.792 18.1414C128.512 17.781 128.088 17.6008 127.521 17.6008C127.081 17.6008 126.684 17.7476 126.33 18.0413C125.983 18.3349 125.703 18.7186 125.489 19.1924V27.0601H123.717V16.2295H125.389ZM140.964 12.4858L144.768 24.3774L148.572 12.4858H150.934V27.0601H149.102V21.3845L149.272 15.699L145.458 27.0601H144.057L140.263 15.739L140.434 21.3845V27.0601H138.602V12.4858H140.964ZM157.72 27.2603C156.372 27.2603 155.338 26.8599 154.617 26.0591C153.897 25.2516 153.53 24.0705 153.516 22.5156V21.2043C153.516 19.5894 153.867 18.3249 154.567 17.4106C155.275 16.4897 156.259 16.0293 157.52 16.0293C158.788 16.0293 159.736 16.433 160.363 17.2405C160.99 18.0479 161.311 19.3058 161.324 21.0142V22.1753H155.278V22.4255C155.278 23.5867 155.495 24.4308 155.929 24.958C156.369 25.4852 157 25.7488 157.821 25.7488C158.341 25.7488 158.798 25.652 159.192 25.4585C159.592 25.2583 159.966 24.9447 160.313 24.5176L161.234 25.6387C160.466 26.7197 159.295 27.2603 157.72 27.2603ZM157.52 17.5508C156.786 17.5508 156.242 17.8044 155.889 18.3115C155.535 18.812 155.335 19.5928 155.288 20.6538H159.552V20.4136C159.506 19.3859 159.319 18.6519 158.992 18.2114C158.671 17.771 158.181 17.5508 157.52 17.5508ZM163.086 21.1543C163.086 19.486 163.396 18.2148 164.017 17.3406C164.644 16.4664 165.541 16.0293 166.709 16.0293C167.744 16.0293 168.551 16.4497 169.132 17.2905V11.6851H170.903V27.0601H169.282L169.192 25.8989C168.611 26.8065 167.78 27.2603 166.699 27.2603C165.578 27.2603 164.697 26.8265 164.057 25.959C163.423 25.0848 163.099 23.8536 163.086 22.2654V21.1543ZM164.857 22.1653C164.857 23.3798 165.038 24.274 165.398 24.8479C165.758 25.4151 166.346 25.6987 167.16 25.6987C168.041 25.6987 168.698 25.255 169.132 24.3674V18.9021C168.678 18.0346 168.024 17.6008 167.17 17.6008C166.356 17.6008 165.768 17.8878 165.408 18.4617C165.048 19.0289 164.864 19.9031 164.857 21.0842V22.1653ZM175.538 27.0601H173.766V16.2295H175.538V27.0601ZM175.678 13.3567C175.678 13.657 175.595 13.9072 175.428 14.1074C175.261 14.3076 175.007 14.4077 174.667 14.4077C174.333 14.4077 174.083 14.3076 173.916 14.1074C173.749 13.9072 173.666 13.657 173.666 13.3567C173.666 13.0564 173.749 12.8028 173.916 12.5959C174.083 12.3891 174.333 12.2856 174.667 12.2856C175.001 12.2856 175.251 12.3924 175.418 12.606C175.591 12.8128 175.678 13.0631 175.678 13.3567ZM182.094 25.7488C182.681 25.7488 183.152 25.5686 183.506 25.2083C183.859 24.8412 184.053 24.3207 184.086 23.6467H185.758C185.718 24.6877 185.347 25.5519 184.647 26.2393C183.953 26.9199 183.102 27.2603 182.094 27.2603C180.753 27.2603 179.729 26.8398 179.021 25.999C178.321 25.1515 177.97 23.8936 177.97 22.2253V21.0342C177.97 19.3993 178.321 18.158 179.021 17.3105C179.722 16.4564 180.743 16.0293 182.084 16.0293C183.192 16.0293 184.069 16.3796 184.717 17.0803C185.371 17.781 185.718 18.7386 185.758 19.9531H184.086C184.046 19.1523 183.853 18.5518 183.506 18.1514C183.165 17.751 182.691 17.5508 182.084 17.5508C181.297 17.5508 180.713 17.811 180.333 18.3315C179.952 18.8454 179.755 19.6929 179.742 20.874V22.2554C179.742 23.5299 179.929 24.4308 180.302 24.958C180.683 25.4852 181.28 25.7488 182.094 25.7488ZM193.375 27.0601C193.268 26.8265 193.192 26.4328 193.145 25.8789C192.518 26.7998 191.717 27.2603 190.743 27.2603C189.762 27.2603 188.994 26.9867 188.44 26.4395C187.893 25.8856 187.62 25.1082 187.62 24.1072C187.62 23.0061 187.993 22.1319 188.741 21.4846C189.488 20.8373 190.512 20.507 191.814 20.4937H193.115V19.3425C193.115 18.6952 192.972 18.2348 192.685 17.9612C192.398 17.6876 191.961 17.5508 191.373 17.5508C190.839 17.5508 190.406 17.7109 190.072 18.0312C189.738 18.3449 189.572 18.7453 189.572 19.2324H187.8C187.8 18.6785 187.963 18.1514 188.29 17.6509C188.617 17.1437 189.058 16.7467 189.612 16.4597C190.165 16.1728 190.783 16.0293 191.463 16.0293C192.571 16.0293 193.412 16.3062 193.986 16.8601C194.566 17.4073 194.863 18.2081 194.877 19.2625V24.7278C194.883 25.5619 194.997 26.286 195.217 26.8999V27.0601H193.375ZM191.013 25.6487C191.447 25.6487 191.86 25.5286 192.254 25.2883C192.648 25.0481 192.935 24.7478 193.115 24.3875V21.8049H192.114C191.273 21.8183 190.609 22.0085 190.122 22.3755C189.635 22.7358 189.391 23.243 189.391 23.897C189.391 24.5109 189.515 24.958 189.762 25.2383C190.009 25.5119 190.426 25.6487 191.013 25.6487ZM199.541 27.0601H197.77V11.6851H199.541V27.0601Z" fill="#252525"/>
</svg>
