<svg width="16" height="16" viewBox="0 0 16 16" fill="none" xmlns="http://www.w3.org/2000/svg">
<path fill-rule="evenodd" clip-rule="evenodd" d="M12.0009 8.00014C12.0009 8.13275 11.9482 8.25993 11.8544 8.3537C11.7607 8.44747 11.6335 8.50014 11.5009 8.50014L5.70789 8.50014L7.85489 10.6461C7.90138 10.6926 7.93826 10.7478 7.96342 10.8086C7.98858 10.8693 8.00152 10.9344 8.00152 11.0001C8.00152 11.0659 7.98858 11.131 7.96342 11.1917C7.93826 11.2525 7.90138 11.3077 7.85489 11.3541C7.80841 11.4006 7.75322 11.4375 7.69248 11.4627C7.63174 11.4878 7.56664 11.5008 7.50089 11.5008C7.43515 11.5008 7.37005 11.4878 7.30931 11.4627C7.24857 11.4375 7.19338 11.4006 7.14689 11.3541L4.14689 8.35414C4.10033 8.3077 4.06339 8.25252 4.03818 8.19178C4.01297 8.13103 4 8.06591 4 8.00014C4 7.93438 4.01297 7.86926 4.03818 7.80851C4.06339 7.74776 4.10033 7.69259 4.14689 7.64614L7.14689 4.64614C7.24078 4.55226 7.36812 4.49951 7.50089 4.49951C7.63367 4.49951 7.76101 4.55226 7.85489 4.64614C7.94878 4.74003 8.00152 4.86737 8.00152 5.00014C8.00152 5.13292 7.94878 5.26026 7.85489 5.35414L5.70789 7.50014L11.5009 7.50014C11.6335 7.50014 11.7607 7.55282 11.8544 7.64659C11.9482 7.74036 12.0009 7.86754 12.0009 8.00014Z" fill="#36A4EE"/>
</svg>
