<svg width="16" height="16" viewBox="0 0 16 16" fill="none" xmlns="http://www.w3.org/2000/svg">
<path fill-rule="evenodd" clip-rule="evenodd" d="M3.99911 7.99986C3.99911 7.86725 4.05178 7.74007 4.14555 7.6463C4.23932 7.55254 4.3665 7.49986 4.49911 7.49986L10.2921 7.49986L8.14511 5.35386C8.09862 5.30737 8.06174 5.25218 8.03658 5.19144C8.01142 5.1307 7.99847 5.0656 7.99847 4.99986C7.99847 4.93411 8.01142 4.86901 8.03658 4.80827C8.06174 4.74753 8.09862 4.69234 8.14511 4.64586C8.19159 4.59937 8.24678 4.56249 8.30752 4.53733C8.36826 4.51217 8.43336 4.49923 8.49911 4.49923C8.56485 4.49923 8.62995 4.51217 8.69069 4.53733C8.75143 4.56249 8.80662 4.59937 8.85311 4.64586L11.8531 7.64586C11.8997 7.6923 11.9366 7.74748 11.9618 7.80822C11.987 7.86897 12 7.93409 12 7.99986C12 8.06562 11.987 8.13074 11.9618 8.19149C11.9366 8.25224 11.8997 8.30741 11.8531 8.35386L8.85311 11.3539C8.75922 11.4477 8.63188 11.5005 8.49911 11.5005C8.36633 11.5005 8.23899 11.4477 8.14511 11.3539C8.05122 11.26 7.99848 11.1326 7.99848 10.9999C7.99848 10.8671 8.05122 10.7397 8.14511 10.6459L10.2921 8.49986L4.49911 8.49986C4.3665 8.49986 4.23932 8.44718 4.14555 8.35341C4.05178 8.25964 3.99911 8.13247 3.99911 7.99986Z" fill="white"/>
</svg>
