<svg width="6" height="6" viewBox="0 0 6 6" fill="none" xmlns="http://www.w3.org/2000/svg">
<g clip-path="url(#clip0_2462_11337)">
<path d="M1.24888 0.749899L1.24888 5.2499C1.24902 5.29546 1.26158 5.34012 1.28522 5.37907C1.30886 5.41802 1.34267 5.44979 1.38301 5.47095C1.42336 5.49211 1.46872 5.50187 1.5142 5.49918C1.55968 5.49648 1.60356 5.48143 1.64113 5.45565L4.89112 3.20565C5.02587 3.1124 5.02587 2.8879 4.89112 2.7944L1.64113 0.544399C1.60364 0.518355 1.55973 0.503083 1.51418 0.50024C1.46862 0.497398 1.42316 0.507095 1.38272 0.528278C1.34229 0.54946 1.30844 0.581318 1.28484 0.62039C1.26124 0.659462 1.2488 0.704254 1.24888 0.749899Z" fill="#252525" fill-opacity="0.8"/>
</g>
<defs>
<clipPath id="clip0_2462_11337">
<rect width="6" height="6" fill="white" transform="translate(6) rotate(90)"/>
</clipPath>
</defs>
</svg>
