<svg width="6" height="6" viewBox="0 0 6 6" fill="none" xmlns="http://www.w3.org/2000/svg">
<g clip-path="url(#clip0_2462_11293)">
<path d="M5.24986 1.2501L0.749856 1.2501C0.704296 1.25024 0.659637 1.2628 0.620687 1.28644C0.581737 1.31008 0.549971 1.34389 0.528807 1.38423C0.507644 1.42458 0.497885 1.46994 0.500581 1.51542C0.503276 1.5609 0.518325 1.60478 0.544106 1.64235L2.79411 4.89235C2.88736 5.0271 3.11186 5.0271 3.20536 4.89235L5.45536 1.64235C5.4814 1.60486 5.49667 1.56095 5.49952 1.5154C5.50236 1.46984 5.49266 1.42438 5.47148 1.38394C5.4503 1.34351 5.41844 1.30966 5.37937 1.28606C5.34029 1.26246 5.2955 1.25002 5.24986 1.2501Z" fill="#36A4EE"/>
</g>
<defs>
<clipPath id="clip0_2462_11293">
<rect width="6" height="6" fill="white" transform="translate(6 6) rotate(-180)"/>
</clipPath>
</defs>
</svg>
