<svg width="26" height="26" viewBox="0 0 26 26" fill="none" xmlns="http://www.w3.org/2000/svg">
<g opacity="0.5">
<path fill-rule="evenodd" clip-rule="evenodd" d="M8.125 18.6875C8.125 18.472 8.2106 18.2653 8.36298 18.113C8.51535 17.9606 8.72201 17.875 8.9375 17.875H23.5625C23.778 17.875 23.9847 17.9606 24.137 18.113C24.2894 18.2653 24.375 18.472 24.375 18.6875C24.375 18.903 24.2894 19.1097 24.137 19.262C23.9847 19.4144 23.778 19.5 23.5625 19.5H8.9375C8.72201 19.5 8.51535 19.4144 8.36298 19.262C8.2106 19.1097 8.125 18.903 8.125 18.6875ZM8.125 12.1875C8.125 11.972 8.2106 11.7653 8.36298 11.613C8.51535 11.4606 8.72201 11.375 8.9375 11.375H23.5625C23.778 11.375 23.9847 11.4606 24.137 11.613C24.2894 11.7653 24.375 11.972 24.375 12.1875C24.375 12.403 24.2894 12.6097 24.137 12.762C23.9847 12.9144 23.778 13 23.5625 13H8.9375C8.72201 13 8.51535 12.9144 8.36298 12.762C8.2106 12.6097 8.125 12.403 8.125 12.1875ZM8.125 5.6875C8.125 5.47201 8.2106 5.26535 8.36298 5.11298C8.51535 4.9606 8.72201 4.875 8.9375 4.875H23.5625C23.778 4.875 23.9847 4.9606 24.137 5.11298C24.2894 5.26535 24.375 5.47201 24.375 5.6875C24.375 5.90299 24.2894 6.10965 24.137 6.26202C23.9847 6.4144 23.778 6.5 23.5625 6.5H8.9375C8.72201 6.5 8.51535 6.4144 8.36298 6.26202C8.2106 6.10965 8.125 5.90299 8.125 5.6875ZM3.25 7.3125C3.68098 7.3125 4.0943 7.14129 4.39905 6.83655C4.7038 6.5318 4.875 6.11848 4.875 5.6875C4.875 5.25652 4.7038 4.8432 4.39905 4.53845C4.0943 4.2337 3.68098 4.0625 3.25 4.0625C2.81902 4.0625 2.4057 4.2337 2.10095 4.53845C1.7962 4.8432 1.625 5.25652 1.625 5.6875C1.625 6.11848 1.7962 6.5318 2.10095 6.83655C2.4057 7.14129 2.81902 7.3125 3.25 7.3125ZM3.25 13.8125C3.68098 13.8125 4.0943 13.6413 4.39905 13.3365C4.7038 13.0318 4.875 12.6185 4.875 12.1875C4.875 11.7565 4.7038 11.3432 4.39905 11.0385C4.0943 10.7337 3.68098 10.5625 3.25 10.5625C2.81902 10.5625 2.4057 10.7337 2.10095 11.0385C1.7962 11.3432 1.625 11.7565 1.625 12.1875C1.625 12.6185 1.7962 13.0318 2.10095 13.3365C2.4057 13.6413 2.81902 13.8125 3.25 13.8125ZM3.25 20.3125C3.68098 20.3125 4.0943 20.1413 4.39905 19.8365C4.7038 19.5318 4.875 19.1185 4.875 18.6875C4.875 18.2565 4.7038 17.8432 4.39905 17.5385C4.0943 17.2337 3.68098 17.0625 3.25 17.0625C2.81902 17.0625 2.4057 17.2337 2.10095 17.5385C1.7962 17.8432 1.625 18.2565 1.625 18.6875C1.625 19.1185 1.7962 19.5318 2.10095 19.8365C2.4057 20.1413 2.81902 20.3125 3.25 20.3125Z" fill="#252525"/>
</g>
</svg>
