<svg width="8" height="8" viewBox="0 0 8 8" fill="none" xmlns="http://www.w3.org/2000/svg">
<path fill-rule="evenodd" clip-rule="evenodd" d="M-0.000893899 3.99986C-0.00089391 3.86725 0.0517842 3.74007 0.145552 3.6463C0.23932 3.55254 0.366498 3.49986 0.499106 3.49986L6.29211 3.49986L4.14511 1.35386C4.09862 1.30737 4.06174 1.25218 4.03658 1.19144C4.01142 1.1307 3.99847 1.0656 3.99847 0.999857C3.99847 0.934113 4.01142 0.869013 4.03658 0.808273C4.06174 0.747534 4.09862 0.692345 4.14511 0.645857C4.19159 0.599369 4.24678 0.562492 4.30752 0.537333C4.36826 0.512174 4.43336 0.499225 4.49911 0.499225C4.56485 0.499225 4.62995 0.512174 4.69069 0.537333C4.75143 0.562492 4.80662 0.599369 4.85311 0.645857L7.85311 3.64586C7.89967 3.6923 7.93661 3.74748 7.96182 3.80822C7.98703 3.86897 8 3.93409 8 3.99986C8 4.06562 7.98703 4.13074 7.96182 4.19149C7.93661 4.25224 7.89967 4.30741 7.85311 4.35386L4.85311 7.35386C4.75922 7.44774 4.63188 7.50049 4.49911 7.50049C4.36633 7.50049 4.23899 7.44774 4.14511 7.35386C4.05122 7.25997 3.99848 7.13263 3.99848 6.99986C3.99848 6.86708 4.05122 6.73974 4.14511 6.64586L6.29211 4.49986L0.499106 4.49986C0.366498 4.49986 0.23932 4.44718 0.145552 4.35341C0.0517842 4.25964 -0.000893887 4.13247 -0.000893899 3.99986Z" fill="#252525"/>
</svg>
