<svg width="26" height="26" viewBox="0 0 26 26" fill="none" xmlns="http://www.w3.org/2000/svg">
<path d="M3.25 7.3125C3.25 6.23506 3.67801 5.20175 4.43988 4.43988C5.20175 3.67801 6.23506 3.25 7.3125 3.25H18.6875C19.7649 3.25 20.7983 3.67801 21.5601 4.43988C22.322 5.20175 22.75 6.23506 22.75 7.3125V18.6875C22.75 19.7649 22.322 20.7983 21.5601 21.5601C20.7983 22.322 19.7649 22.75 18.6875 22.75H7.3125C6.23506 22.75 5.20175 22.322 4.43988 21.5601C3.67801 20.7983 3.25 19.7649 3.25 18.6875V7.3125ZM7.3125 4.875C6.66603 4.875 6.04605 5.13181 5.58893 5.58893C5.13181 6.04605 4.875 6.66603 4.875 7.3125V8.9375H8.9375V4.875H7.3125ZM10.5625 4.875V8.9375H15.4375V4.875H10.5625ZM10.5625 10.5625V15.4375H15.4375V10.5625H10.5625ZM8.9375 15.4375V10.5625H4.875V15.4375H8.9375ZM4.875 17.0625V18.6875C4.875 19.334 5.13181 19.954 5.58893 20.4111C6.04605 20.8682 6.66603 21.125 7.3125 21.125H8.9375V17.0625H4.875ZM10.5625 17.0625V21.125H15.4375V17.0625H10.5625ZM17.0625 17.0625V21.125H18.6875C19.334 21.125 19.954 20.8682 20.4111 20.4111C20.8682 19.954 21.125 19.334 21.125 18.6875V17.0625H17.0625ZM21.125 15.4375V10.5625H17.0625V15.4375H21.125ZM17.0625 4.875V8.9375H21.125V7.3125C21.125 6.66603 20.8682 6.04605 20.4111 5.58893C19.954 5.13181 19.334 4.875 18.6875 4.875H17.0625Z" fill="#36A4EE"/>
</svg>
